<?xml version="1.0" encoding="utf-8"?>
<!-- Generator: Adobe Illustrator 19.0.0, SVG Export Plug-In . SVG Version: 6.00 Build 0)  -->
<svg version="1.1" id="Layer_1" xmlns="http://www.w3.org/2000/svg" xmlns:xlink="http://www.w3.org/1999/xlink" x="0px" y="0px"
	 viewBox="296.4 -77.8 312.7 94" style="enable-background:new 296.4 -77.8 312.7 94;" xml:space="preserve">
<style type="text/css">
	.st0{fill:#FFFFFF;}
</style>
<g>
	<g id="XMLID_1_">
		<path id="XMLID_4_" class="st0" d="M343-37.3c-3.1-1.8-6.1-3.6-9.2-5.3c0-0.6,0-1.2,0-1.7c0-0.1-0.1-0.1-0.1-0.2
			c-0.9-0.5-1.7-1-2.6-1.5c0,1.7,0,3.3,0,5c4,2.3,8,4.6,12,6.9c4-2.3,8-4.6,12-6.9c0-1.9,0-3.8,0-5.7c-4-2.3-8-4.7-12.1-7l0.1-4.9
			c3.1,1.8,6.2,3.6,9.2,5.3c0,0.6,0,1.2,0,1.8c0.9,0.5,1.8,1.1,2.8,1.6c0-1.7,0-3.4,0-5c-4-2.3-8-4.6-12-6.9c-4,2.3-8,4.6-12,6.9
			c0,1.9,0,3.8,0,5.7c4,2.3,8,4.6,12.1,7L343-37.3z M333.8-49.5c0-0.8,0-1.7,0-2.5c2.1-1.2,4.3-2.5,6.4-3.7l0,0v0.1v0.1v4.8
			c4,2.3,8,4.6,12.1,7c0,0.8,0,1.7,0,2.5c-2.1,1.2-4.3,2.5-6.4,3.7v-4.9C341.8-44.9,337.8-47.2,333.8-49.5z"/>
		<path id="XMLID_3_" class="st0" d="M343.4-31.2c-0.3,0.2-0.6,0.2-0.8,0c-7.5-4.4-15.1-8.8-22.7-13.1c0,8.9,0,17.8,0,26.6
			c3.1,1.7,6.1,3.7,9.3,5.3c0.1-5.1,0-10.1,0.1-15.2c4.5,2.7,9.2,5.3,13.7,7.9c3.1-1.7,6.1-3.5,9.2-5.2c1.5-0.8,3-1.9,4.6-2.5
			c0.1,5,0,10,0,15c3.2-1.6,6.1-3.6,9.3-5.2c0-8.9,0.1-17.9,0-26.7C358.5-39.9,351-35.6,343.4-31.2z"/>
		<path id="XMLID_2_" class="st0" d="M343.1-78L343.1-78C317.2-78,296-56.9,296-31l0,0c0,25.9,21.1,47,47.1,47l0,0
			c25.9,0,47.1-21.1,47.1-47l0,0C390.1-56.9,369-78,343.1-78z M348-0.1c-1.7,0.9-3.2,1.9-4.9,2.8c-9.5-5.5-18.9-11-28.3-16.4
			c-0.3-0.2-0.8-0.4-0.7-0.9c0-11.1,0-22.2,0-33.3c4.1-2.5,8.4-4.9,12.5-7.3c5.5-3.2,10.9-6.3,16.4-9.5c0.4-0.3,0.8,0.1,1.1,0.3
			c9.5,5.6,19.1,11,28.4,16.6c0,11.2,0,22.4,0,33.5C364.3-9.4,356.1-4.9,348-0.1z"/>
	</g>
	<g>
		<path class="st0" d="M398.5,8.8v-35.7h16.9c3.7,0,6.7,0.9,8.9,2.6c2.6,2,4,5,4,8.9c0,8.2-4.3,12.3-12.9,12.3h-7.6V8.8
			C407.8,8.8,398.5,8.8,398.5,8.8z M407.8-19.4v9.2h6.3c3.3,0,5-1.5,5-4.5c0-3.1-1.7-4.7-5-4.7C414.1-19.4,407.8-19.4,407.8-19.4z"
			/>
		<path class="st0" d="M431.2-4.1c0-3.9,1.3-7.2,3.8-9.8s5.8-3.9,9.8-3.9s7.3,1.3,9.9,3.9s3.9,5.9,3.9,9.8s-1.3,7.2-3.9,9.8
			s-5.9,3.9-9.9,3.9s-7.3-1.3-9.8-3.9S431.2-0.2,431.2-4.1z M439.7-4.1c0,2,0.4,3.6,1.1,4.9c0.9,1.6,2.3,2.3,4,2.3s3.2-0.8,4.1-2.3
			c0.7-1.3,1.1-2.9,1.1-4.9c0-1.9-0.4-3.5-1.1-4.8c-0.9-1.6-2.3-2.4-4.1-2.4s-3.2,0.8-4,2.4C440-7.7,439.7-6.1,439.7-4.1z"/>
		<path class="st0" d="M463.3,8.8v-26h8.3v4.6h0.1c1.3-3.4,3.9-5.1,7.8-5.1c0.8,0,1.4,0.1,2,0.2v7.8c-1.2-0.3-2.3-0.5-3.3-0.5
			c-2,0-3.6,0.6-4.7,1.8c-1.1,1.2-1.7,2.6-1.7,4.4V8.8H463.3z"/>
		<path class="st0" d="M499.9-17.1v5.5h-5.3V0.2c0,1.7,1,2.5,3,2.5c0.2,0,0.6,0,1.1-0.1c0.5,0,0.9,0,1.1,0v6.2c-0.4,0-1.2,0-2.3,0.2
			c-1,0.1-1.8,0.1-2.4,0.1c-3.6,0-6-0.6-7.3-1.9S486,3.5,486-0.1v-11.5h-4.3v-5.5h4.3v-7.8h8.5v7.8H499.9z"/>
		<path class="st0" d="M505.6,8.8v-20.4h-4.1v-5.5h4.1c0-3.7,0.7-6.3,2.2-7.6c1.5-1.4,4-2.1,7.7-2.1c0,0,1.4,0.1,4.1,0.2v6
			c-0.8-0.1-1.6-0.2-2.3-0.2c-1.1,0-1.9,0.1-2.3,0.4c-0.6,0.4-0.8,1.1-0.8,2.2v1.1h5.1v5.5h-5.1V8.8C514.2,8.8,505.6,8.8,505.6,8.8z
			"/>
		<path class="st0" d="M521-4.1c0-3.9,1.3-7.2,3.8-9.8s5.8-3.9,9.8-3.9s7.3,1.3,9.8,3.9s3.9,5.9,3.9,9.8s-1.3,7.2-3.9,9.8
			c-2.6,2.6-5.8,3.9-9.8,3.9s-7.3-1.3-9.8-3.9S521-0.2,521-4.1z M529.5-4.1c0,2,0.4,3.6,1.1,4.9c0.9,1.6,2.3,2.3,4,2.3
			s3.2-0.8,4.1-2.3c0.7-1.3,1.1-2.9,1.1-4.9c0-1.9-0.4-3.5-1.1-4.8c-0.9-1.6-2.3-2.4-4.1-2.4c-1.8,0-3.2,0.8-4,2.4
			C529.8-7.7,529.5-6.1,529.5-4.1z"/>
		<path class="st0" d="M553.1,8.8v-35.7h8.5V8.8C561.6,8.8,553.1,8.8,553.1,8.8z"/>
		<path class="st0" d="M576.4-26.9v6.5h-8.5v-6.5H576.4z M567.9,8.8v-26h8.5v26H567.9z"/>
		<path class="st0" d="M581.1-4.1c0-3.9,1.3-7.2,3.8-9.8s5.8-3.9,9.8-3.9s7.3,1.3,9.8,3.9s3.9,5.9,3.9,9.8s-1.3,7.2-3.9,9.8
			c-2.6,2.6-5.8,3.9-9.8,3.9s-7.3-1.3-9.8-3.9S581.1-0.2,581.1-4.1z M589.6-4.1c0,2,0.4,3.6,1.1,4.9c0.9,1.6,2.3,2.3,4,2.3
			s3.2-0.8,4.1-2.3c0.7-1.3,1.1-2.9,1.1-4.9c0-1.9-0.4-3.5-1.1-4.8c-0.9-1.6-2.3-2.4-4.1-2.4c-1.8,0-3.2,0.8-4,2.4
			C590-7.7,589.6-6.1,589.6-4.1z"/>
	</g>
	<g>
		<path class="st0" d="M398.5-34.5v-35.7h13.7l6.1,23.8h0.1l6.1-23.8h13.7v35.7h-8.8v-27.1h-0.1L422-34.5h-7.1l-7.5-27.1h-0.1v27.1
			H398.5z"/>
		<path class="st0" d="M452-52.5h-8c0.3-5.8,4.4-8.8,12.3-8.8c3.7,0,6.5,0.5,8.4,1.6c2.5,1.4,3.8,3.8,3.8,7.1v11.4
			c0,3.1,0.3,5.3,1,6.6h-8.6c-0.2-0.5-0.4-1.4-0.5-2.5c-2,2.1-4.9,3.2-8.5,3.2c-2.6,0-4.7-0.6-6.3-1.9c-1.8-1.2-2.6-3.2-2.6-5.8
			c0-2.6,0.9-4.5,2.6-5.8c1.3-1,3.3-1.7,6-2.2c2.2-0.3,4.4-0.7,6.5-1c1.5-0.3,2.3-1.1,2.3-2.4c0-0.9-0.5-1.6-1.4-2.1
			c-0.8-0.4-1.7-0.6-2.7-0.6C453.8-55.7,452.4-54.6,452-52.5z M451.5-42c0,2,1.2,3,3.5,3c2,0,3.4-0.6,4.2-1.8c0.8-1.2,1.1-3.2,1-5.9
			c-0.5,0.3-1.7,0.7-3.4,1c-1.7,0.3-2.9,0.7-3.6,1C452.1-44,451.5-43.1,451.5-42z"/>
		<path class="st0" d="M474.3-34.5v-26h8.3v4.6h0.1c1.3-3.4,3.9-5.1,7.8-5.1c0.8,0,1.4,0.1,2,0.2v7.8c-1.2-0.3-2.3-0.5-3.3-0.5
			c-2,0-3.6,0.6-4.7,1.8c-1.1,1.2-1.7,2.6-1.7,4.4v12.8H474.3z"/>
		<path class="st0" d="M519.5-60.5l-8.7,26H501l-8.7-26h8.9l4.8,17.2h0.1l4.8-17.2H519.5z"/>
		<path class="st0" d="M546.6-60.5l-10.3,28.3c-1,2.7-2.3,4.5-4,5.4c-1.4,0.7-3.6,1.1-6.8,1.1h-4v-7h2.9c1,0,1.8-0.3,2.5-0.8
			c0.6-0.5,1-1.2,1-2.1c0-0.7-0.7-2.9-2.2-6.8L519-60.5h9l4.9,16.9h0.1l4.9-16.9H546.6z"/>
		<path class="st0" d="M549.6-60.9v-9.3h8v8.3c0,5.6-2.7,8.8-8,9.7v-4c1.1-0.2,2-0.8,2.7-1.6c0.7-0.9,1-1.9,0.9-3L549.6-60.9
			L549.6-60.9z"/>
		<path class="st0" d="M562.3-43h8.1c0,1.2,0.5,2.2,1.4,2.9c0.8,0.6,1.9,0.9,3.2,0.9c1,0,1.9-0.2,2.6-0.6c0.9-0.5,1.4-1.2,1.4-2.1
			c0-0.9-0.5-1.5-1.5-2c-0.4-0.1-1.3-0.4-2.7-0.8c-1.8-0.4-3.7-0.8-5.5-1.3c-2.1-0.6-3.6-1.3-4.6-2.3c-1.3-1.2-2-2.9-2-5
			c0-2.8,1.3-4.9,4-6.3c2.1-1.1,4.7-1.7,7.9-1.7c7.7,0,11.7,2.8,11.9,8.4h-7.8c0-1.9-1.3-2.9-3.8-2.9c-2.4,0-3.7,0.7-3.7,2
			c0,1,1.1,1.9,3.4,2.5c2.1,0.4,4.1,0.8,6.3,1.3c2.3,0.5,4.1,1.5,5.3,3.1c0.9,1.2,1.3,2.5,1.3,3.9c0,3.2-1.3,5.6-4,7.3
			c-2.2,1.3-5,2-8.4,2c-3.6,0-6.4-0.6-8.5-2C563.8-37.3,562.4-39.7,562.3-43z"/>
	</g>
</g>
</svg>
